<?xml version="1.0" encoding="UTF-8"?>
<svg xmlns="http://www.w3.org/2000/svg" id="Layer_2" data-name="Layer 2" viewBox="0 0 1280 1280">
  <defs>
    <style>
      .cls-1 {
        fill: #593be7;
      }

      .cls-1, .cls-2 {
        stroke-width: 0px;
      }

      .cls-2 {
        fill: #b0f5d8;
      }
    </style>
  </defs>
  <path class="cls-2" d="M1254.57,1186.45v68.15h-173.03c-114.49-147.13-229.01-294.25-343.5-441.38,41.24-46.37,82.47-92.73,123.71-139.1,130.92,170.76,261.85,341.56,392.81,512.32Z"></path>
  <path class="cls-1" d="M1081.54,1254.6h-232.23c-35.94-46.23-80.73-103.89-116.63-150.15-36.29-46.76-81.06-104.5-117.31-151.29,40.89-46.65,81.78-93.29,122.67-139.94l.82,1.07,342.68,440.31Z"></path>
  <rect class="cls-2" x="25.42" y="224.02" width="177.85" height="1030.58"></rect>
  <polygon class="cls-2" points="1026.53 224.01 689.5 608.45 573.39 740.88 572.71 741.71 456.6 874.15 381.12 960.22 381.12 697.4 457.46 610.28 458.19 609.49 574.31 477.06 796.13 224.01 1026.53 224.01"></polygon>
  <polygon class="cls-1" points="1254.59 224.01 801.5 740.88 685.38 873.32 684.66 874.1 568.59 1006.54 377 1225.05 377 962.23 453.34 875.15 569.46 742.71 570.14 741.88 686.25 609.45 1024.19 224.01 1254.59 224.01"></polygon>
  <rect class="cls-1" x="203.26" y="224.02" width="177.85" height="1030.58"></rect>
  <rect class="cls-2" x="25.4" y="25.4" width="1229.19" height="170.24"></rect>
</svg>
